<?xml version="1.0" encoding="utf-8" ?>
<svg xmlns="http://www.w3.org/2000/svg" xmlns:xlink="http://www.w3.org/1999/xlink" width="1512" height="1512">
	<path fill="#B20385" transform="matrix(3.78 0 0 3.78 6.10352e-05 0)" d="M239.45 161.325C240.623 163.178 239.725 166.356 240.17 168.508L239.919 168.783C238.422 169.56 236.84 171.549 235.555 172.724C234.065 171.072 232.843 169.209 231.577 167.385C233.955 165.132 236.783 163.219 239.45 161.325Z"/>
	<path fill="#05B0AC" transform="matrix(3.78 0 0 3.78 6.10352e-05 0)" d="M214.168 172.885C212.281 170.697 202.969 158.488 202.471 156.718C202.707 156.346 202.975 156.008 203.288 155.698C205.06 153.944 207.258 152.5 209.251 150.999L219.093 143.503C227.307 137.208 235.273 130.435 243.782 124.547C244.885 123.784 246.1 122.999 247.375 122.557C250.622 121.43 257.261 122.073 260.886 122.065C259.699 122.228 258.527 122.323 257.33 122.385C253.73 124.932 250.411 127.861 246.935 130.574C240.105 135.903 233.162 141.096 226.271 146.346C221.774 149.772 217.318 153.414 212.651 156.6C215.325 160.009 218.392 163.52 220.523 167.29C218.588 169.292 216.253 171.024 214.168 172.885Z"/>
	<path fill="#B20385" transform="matrix(3.78 0 0 3.78 6.10352e-05 0)" d="M272.132 122.019C276.797 121.981 281.532 122.249 286.185 121.975L286.227 200.836L286.228 226.018C286.237 230.301 286.527 234.822 286.17 239.082Q295.07 238.989 303.971 239.02C307.988 239.043 312.075 239.206 316.086 239.025C315.995 246.543 315.869 254.112 316.073 261.629C304.818 261.138 293.403 261.468 282.13 261.463L220.493 261.447L220.642 261.234C230.518 260.908 240.487 261.18 250.371 261.179L305.117 261.223C305.754 254.922 305.251 245.889 305.233 239.293C295.328 239.154 285.41 239.254 275.504 239.256L275.314 122.285C274.248 122.246 273.192 122.129 272.132 122.019Z"/>
	<path fill="#05B0AC" transform="matrix(3.78 0 0 3.78 6.10352e-05 0)" d="M138.388 263.974C133.802 264.519 124.22 264.124 119.63 263.237C107.458 260.886 97.2654 253.889 90.3618 243.652C77.1071 223.997 75.7274 189.745 80.145 167.032C83.1551 151.556 89.9977 135.855 103.548 126.825C110.576 122.141 122.988 117.874 131.37 119.569L131.798 119.855C120.617 121.404 109.751 128.814 103.039 137.674C88.5527 156.798 86.9132 187.835 90.0945 210.745C92.3153 226.738 97.6591 244.451 111.155 254.589C116.81 258.837 124.334 262.43 131.373 263.475C133.663 263.814 136.152 263.449 138.388 263.974Z"/>
	<path fill="#B20385" transform="matrix(3.78 0 0 3.78 6.10352e-05 0)" d="M131.37 119.569C136.522 118.979 141.741 119.204 146.914 119.288C149.927 119.337 152.977 119.118 155.98 119.31C165.344 119.908 175.194 123.293 182.586 129.11C195.456 139.239 201.036 156.067 202.817 171.791C205.524 195.677 204.048 227.633 188.407 247.166C180.465 257.085 168.72 262.461 156.239 263.798C152.308 264.219 145.558 264.377 141.614 263.976C143.358 263.582 145.399 263.709 147.203 263.587C157.924 262.861 169.257 256.668 176.237 248.659C192.191 230.353 194.148 202.151 192.578 179.048C191.431 162.187 186.878 142.232 173.52 130.684C161.105 119.952 147.612 118.675 131.798 119.855L131.37 119.569Z"/>
	<path fill="#E6E6E6" transform="matrix(3.78 0 0 3.78 6.10352e-05 0)" d="M260.886 122.065C264.635 121.923 268.383 121.981 272.132 122.019C273.192 122.129 274.248 122.246 275.314 122.285L275.504 239.256C285.41 239.254 295.328 239.154 305.233 239.293C305.251 245.889 305.754 254.922 305.117 261.223L250.371 261.179C240.487 261.18 230.518 260.908 220.642 261.234L220.493 261.447Q215.08 261.371 209.666 261.405C209.591 254.072 210.053 246.48 209.419 239.186Q224.711 238.957 240.004 239.088C239.686 228.452 239.948 217.733 239.95 207.09C239.952 194.331 239.746 181.539 239.919 168.783L240.17 168.508C239.725 166.356 240.623 163.178 239.45 161.325C236.783 163.219 233.955 165.132 231.577 167.385C229.136 169.079 226.826 170.986 224.49 172.821C223.128 171.011 221.839 169.134 220.523 167.29C218.392 163.52 215.325 160.009 212.651 156.6C217.318 153.414 221.774 149.772 226.271 146.346C233.162 141.096 240.105 135.903 246.935 130.574C250.411 127.861 253.73 124.932 257.33 122.385C258.527 122.323 259.699 122.228 260.886 122.065Z"/>
	<path fill="#AF28AC" transform="matrix(3.78 0 0 3.78 6.10352e-05 0)" d="M239.45 161.325C243.085 158.242 246.959 155.451 250.798 152.63C250.739 155.499 250.757 158.373 250.739 161.243C246.882 162.315 243.422 166.218 240.17 168.508C239.725 166.356 240.623 163.178 239.45 161.325Z"/>
	<path fill="#05B0AC" transform="matrix(3.78 0 0 3.78 6.10352e-05 0)" d="M250.739 161.243L250.747 239.009C246.583 239.395 242.375 239.279 238.197 239.278L220.436 239.259L220.425 253.232C220.426 255.799 220.199 258.712 220.642 261.234L220.493 261.447Q215.08 261.371 209.666 261.405C209.591 254.072 210.053 246.48 209.419 239.186Q224.711 238.957 240.004 239.088C239.686 228.452 239.948 217.733 239.95 207.09C239.952 194.331 239.746 181.539 239.919 168.783L240.17 168.508C243.422 166.218 246.882 162.315 250.739 161.243Z"/>
	<path fill="#E6E6E6" transform="matrix(3.78 0 0 3.78 6.10352e-05 0)" d="M131.798 119.855C147.612 118.675 161.105 119.952 173.52 130.684C186.878 142.232 191.431 162.187 192.578 179.048C194.148 202.151 192.191 230.353 176.237 248.659C169.257 256.668 157.924 262.861 147.203 263.587C145.399 263.709 143.358 263.582 141.614 263.976L138.388 263.974C136.152 263.449 133.663 263.814 131.373 263.475C124.334 262.43 116.81 258.837 111.155 254.589C97.6591 244.451 92.3153 226.738 90.0945 210.745C86.9132 187.835 88.5527 156.798 103.039 137.674C109.751 128.814 120.617 121.404 131.798 119.855ZM143.666 141.554C143.135 142.57 142.6 143.211 141.758 143.981C140.204 143.965 138.928 145.093 137.862 146.125C129.777 153.944 125.85 169.114 125.735 180.115C125.728 180.785 125.741 181.384 126.049 181.992C125.547 182.756 125.096 183.499 124.695 184.324C124.488 187.105 124.374 189.872 125.313 192.541C130.362 188.475 135.108 183.945 139.868 179.549C147.593 172.413 155.29 165.205 163.226 158.305C162.013 155.213 160.5 152.081 158.417 149.478C154.629 144.745 149.632 142.246 143.666 141.554ZM129.288 224.325C132.012 229.778 135.222 236.83 141.066 239.542Q141.805 239.046 142.494 238.483C154.138 228.797 155.116 213.869 156.468 199.924C153.161 201.82 150.1 204.947 147.256 207.486Q138.042 215.66 129.288 224.325Z"/>
	<path fill="#AF28AC" transform="matrix(3.78 0 0 3.78 6.10352e-05 0)" d="M114.421 191.536C116.286 191.792 121.816 185.138 124.695 184.324C124.488 187.105 124.374 189.872 125.313 192.541C122.204 196.246 118.178 199.469 114.453 202.536C114.614 198.886 114.119 195.155 114.421 191.536Z"/>
	<path fill="#AF28AC" transform="matrix(3.78 0 0 3.78 6.10352e-05 0)" d="M155.688 190.287C159.401 186.684 163.171 183.096 167.273 179.934C167.361 183.225 167.422 186.505 167.362 189.798C163.178 191.992 160.708 195.749 157.119 198.615C157.091 198.568 157.064 198.521 157.035 198.475C155.452 195.987 157.286 192.38 155.688 190.287Z"/>
	<path fill="#B20385" transform="matrix(3.78 0 0 3.78 6.10352e-05 0)" d="M155.688 190.287C157.286 192.38 155.452 195.987 157.035 198.475C157.064 198.521 157.091 198.568 157.119 198.615C156.89 199.037 156.61 199.466 156.468 199.924C153.161 201.82 150.1 204.947 147.256 207.486Q138.042 215.66 129.288 224.325C132.012 229.778 135.222 236.83 141.066 239.542C142.072 240.191 143.152 240.809 144.067 241.578C140.132 242.311 135.319 241.665 131.656 240.094C124.692 237.108 121.05 230.616 118.405 223.885C131.173 213.062 143.116 201.325 155.688 190.287Z"/>
	<path fill="#B20385" transform="matrix(3.78 0 0 3.78 6.10352e-05 0)" d="M114.421 191.536C114.488 187.376 114.466 183.227 114.817 179.077C115.756 167.982 118.012 153.7 127.114 146.13C131.864 142.178 137.626 141.005 143.666 141.554C143.135 142.57 142.6 143.211 141.758 143.981C140.204 143.965 138.928 145.093 137.862 146.125C129.777 153.944 125.85 169.114 125.735 180.115C125.728 180.785 125.741 181.384 126.049 181.992C125.547 182.756 125.096 183.499 124.695 184.324C121.816 185.138 116.286 191.792 114.421 191.536Z"/>
	<path fill="#05B0AC" transform="matrix(3.78 0 0 3.78 6.10352e-05 0)" d="M167.362 189.798C168.224 203.267 166.488 223.882 157.247 234.511C154.127 238.098 149.257 241.336 144.371 241.569C144.27 241.574 144.168 241.575 144.067 241.578C143.152 240.809 142.072 240.191 141.066 239.542Q141.805 239.046 142.494 238.483C154.138 228.797 155.116 213.869 156.468 199.924C156.61 199.466 156.89 199.037 157.119 198.615C160.708 195.749 163.178 191.992 167.362 189.798Z"/>
	<path fill="#05B0AC" transform="matrix(3.78 0 0 3.78 6.10352e-05 0)" d="M143.666 141.554C149.632 142.246 154.629 144.745 158.417 149.478C160.5 152.081 162.013 155.213 163.226 158.305C155.29 165.205 147.593 172.413 139.868 179.549C135.108 183.945 130.362 188.475 125.313 192.541C124.374 189.872 124.488 187.105 124.695 184.324C125.096 183.499 125.547 182.756 126.049 181.992C125.741 181.384 125.728 180.785 125.735 180.115C125.85 169.114 129.777 153.944 137.862 146.125C138.928 145.093 140.204 143.965 141.758 143.981C142.6 143.211 143.135 142.57 143.666 141.554ZM126.049 181.992C134.886 174.155 143.955 166.33 152.34 158.022C150.539 153.769 148.215 150.147 144.92 146.894C143.95 145.936 142.86 145.129 141.913 144.144L141.758 143.981C140.204 143.965 138.928 145.093 137.862 146.125C129.777 153.944 125.85 169.114 125.735 180.115C125.728 180.785 125.741 181.384 126.049 181.992Z"/>
</svg>
