<svg width="145" height="145" fill="none" xmlns="http://www.w3.org/2000/svg"><rect width="145" height="145" rx="24" fill="#181618"/><path d="M68.867 26.475s-.111.084-.111.112c-1.527 3.025-4.553 14.158-4.748 17.545v.276c0 .25-.388.306-.444 0-.722-2.664-1.527-12.409-1.249-15.129 0-.166-.166-.306-.333-.25a65.806 65.806 0 0 0-5.025 2.61c-4.636 2.72-6.58 3.775-10.327 7.579-.055 0-.083.082-.083.138-.194 3.553-.083 13.826 1.166 17.129.083.25-.25.416-.389.222-1.832-2.276-5.08-9.411-5.885-12.215-.083.056-.139.138-.167.166a64.243 64.243 0 0 0-2.22 2.75 59.81 59.81 0 0 0-10.189 20.847c-1.277 4.97-1.915 10.05-1.86 15.158 2.193 2.915 5.663 6.607 11.132 10.104a69.012 69.012 0 0 1 0-3.386c.14-3.303.611-6.551 1.472-9.716.638-2.555 1.554-5.053 2.665-7.469 2.332-5.107 5.69-9.633 9.772-13.463 3.525-3.33 9.216-6.44 14.352-7.8 4.775-1.277 9.244-1.667 14.492-1.389 4.913.278 9.909 1.86 14.38 3.97l8.772-24.735s.555-1.305.666-1.249c-7.829-2.36-27.456-4.997-35.84-1.805z" fill="#D03638"/><path d="M105.288 120a57.665 57.665 0 0 1-25.456-9.022s-.028 0-.028-.028a3.574 3.574 0 0 1-1.083-1.471 41.282 41.282 0 0 0-9.216-13.326c-3.887-3.774-8.495-6.718-13.52-8.716a.285.285 0 0 1-.139-.168C54.57 82.356 57.04 77 57.873 75.39c.083-.167-.083-.389-.278-.334-6.607 1.943-9.522 5.497-10.715 7.663-.14.222-.472.11-.417-.168 2.915-14.212 12.881-23.623 26.734-24.956 10.133-.972 21.765 2.582 23.819 11.132.028.11-.056.25-.167.278l-9.438 4.108s-.166.14-.166.25c0 0 .11.222.22.222h14.576s.194.056.221.14c2.277 6.162 1.194 15.85.612 18.987a.226.226 0 0 1-.445 0c-3.276-15.88-11.576-7.801-21.237-12.242-.166-.083-.334.055-.334.25a12.736 12.736 0 0 0 3.97 7.523 12.776 12.776 0 0 0 8.245 3.386h.028c3.887.5 5.358 2.222 6.108 6.357A200.274 200.274 0 0 0 105.288 120z" fill="#DDBA7E"/></svg>