<svg width="535" height="129" viewBox="0 0 535 129" fill="none" xmlns="http://www.w3.org/2000/svg">
<g clip-path="url(#clip0_1_24)">
<path d="M32.4558 20.9539C32.0004 23.0295 29.9841 24.3885 27.9016 23.968C14.0207 21.1525 2.83353 32.1105 0.451292 44.5016C-0.327218 48.5514 -0.0780947 52.5624 1.01571 56.2657C3.9468 66.1839 15.5816 70.5337 24.4022 65.1403L63.2109 41.4174C68.0454 38.4969 73.4016 37.7531 76.8426 40.3115C80.1007 42.7336 79.7114 48.493 78.9485 52.4806L78.5203 54.7002C78.2712 56.0047 79.6803 56.9939 80.8208 56.3124C80.8208 56.3124 102.88 43.0569 110.268 38.6955C121.366 32.1456 120.346 21.6743 113.222 14.6416C109.832 11.2926 105.449 8.8783 100.416 7.91256C94.4408 6.7638 88.5553 7.85415 83.6195 10.5917C81.0933 11.9936 77.9325 11.4134 76.1069 9.17425C72.3895 4.60646 67.0489 1.32373 60.7391 0.299584C48.5944 -1.66694 35.7178 6.09012 32.452 20.9539H32.4558Z" fill="#82D0DD"/>
<path d="M101.105 108.046C101.561 105.97 103.577 104.611 105.659 105.032C119.54 107.847 130.727 96.8892 133.11 84.4982C133.888 80.4483 133.639 76.4374 132.545 72.7341C129.614 62.8158 117.979 58.4661 109.159 63.8594L70.3501 87.5823C65.5155 90.5029 60.1594 91.2467 56.7183 88.6882C53.4603 86.2661 53.8495 80.5067 54.6125 76.5153L55.0407 74.2956C55.2898 72.9911 53.8807 72.002 52.7402 72.6835C52.7402 72.6835 30.6811 85.939 23.293 90.3004C12.1953 96.8503 13.2152 107.322 20.3386 114.354C23.729 117.703 28.112 120.118 33.1451 121.083C39.1201 122.232 45.0057 121.142 49.9414 118.404C52.4677 117.002 55.6284 117.583 57.454 119.822C61.1714 124.389 66.512 127.672 72.8218 128.696C84.9666 130.663 97.8431 122.906 101.109 108.042L101.105 108.046Z" fill="#436F90"/>
<path d="M268.629 110.02C268.349 110.02 268.068 110.02 267.784 110.008C248.987 109.565 233.693 93.587 233.693 74.3968V44.4356C233.693 38.9332 238.17 34.455 243.67 34.455C249.17 34.455 253.646 38.9332 253.646 44.4356V74.6616C253.646 82.8899 259.894 89.6423 267.87 90.0356C268.123 90.0473 268.376 90.055 268.625 90.055C276.885 90.055 283.603 83.3338 283.603 75.0705V44.4356C283.603 38.9332 288.08 34.455 293.58 34.455C299.08 34.455 303.557 38.9332 303.557 44.4356V75.0705C303.557 94.3386 287.885 110.02 268.625 110.02H268.629Z" fill="#436F90"/>
<path d="M215.931 108.583C210.431 108.583 205.955 104.105 205.955 98.6026V67.9988C205.955 59.7706 199.707 53.0182 191.731 52.6249C191.478 52.6132 191.229 52.6055 190.976 52.6055C182.716 52.6055 175.998 59.3267 175.998 67.59V98.6026C175.998 104.105 171.521 108.583 166.021 108.583C160.521 108.583 156.045 104.105 156.045 98.6026V67.59C156.045 48.318 171.716 32.6404 190.98 32.6404C191.26 32.6404 191.541 32.6404 191.825 32.6482C210.622 33.0921 225.916 49.0696 225.916 68.2598V98.5987C225.916 104.101 221.439 108.579 215.939 108.579L215.931 108.583Z" fill="#436F90"/>
<path d="M350.03 110.02C329.065 110.02 311.35 92.0021 311.35 70.6741V28.6879C311.35 23.1855 315.826 18.7073 321.326 18.7073C326.826 18.7073 331.303 23.1855 331.303 28.6879V35.9854C331.303 36.3008 331.466 36.5929 331.735 36.7603C331.879 36.8499 332.046 36.8927 332.21 36.8927C332.35 36.8927 332.49 36.8616 332.618 36.7954C338.06 34.0384 343.919 32.6404 350.022 32.6404C350.466 32.6404 350.917 32.6482 351.365 32.6637C371.552 33.3569 387.936 49.7121 388.671 69.8992C389.053 80.4756 385.226 90.499 377.889 98.1314C370.547 105.768 360.688 109.993 350.131 110.02H350.026H350.03ZM350.026 52.6055C339.703 52.6055 331.307 61.005 331.307 71.3322C331.307 81.6594 339.703 90.059 350.026 90.059C360.349 90.059 368.745 81.6594 368.745 71.3322C368.745 61.005 360.349 52.6055 350.026 52.6055Z" fill="#436F90"/>
<path d="M525.016 110.02C521.559 110.02 518.394 108.26 516.553 105.308C516.382 105.032 516.086 104.88 515.782 104.88C515.631 104.88 515.479 104.919 515.335 104.997C509.547 108.283 502.972 110.02 496.316 110.02C474.992 110.02 457.643 92.6641 457.643 71.3322C457.643 50.0003 474.992 32.6443 496.316 32.6443C517.639 32.6443 534.988 50.0003 534.988 71.3322C534.988 71.3712 534.988 71.4101 534.996 71.4529H534.988V100.043C534.988 105.546 530.512 110.024 525.012 110.024L525.016 110.02ZM496.32 52.6055C485.997 52.6055 477.6 61.005 477.6 71.3322C477.6 81.6594 485.997 90.059 496.32 90.059C506.643 90.059 515.039 81.6594 515.039 71.3322C515.039 61.005 506.643 52.6055 496.32 52.6055Z" fill="#436F90"/>
<path d="M407.476 108.147C401.976 108.147 397.5 103.669 397.5 98.1665V54.8173C397.5 49.315 401.976 44.8367 407.476 44.8367C412.976 44.8367 417.453 49.315 417.453 54.8173V98.1665C417.453 103.669 412.976 108.147 407.476 108.147Z" fill="#436F90"/>
<path d="M438.975 108.147C433.474 108.147 428.998 103.669 428.998 98.1665V27.1497C428.998 21.6473 433.474 17.1691 438.975 17.1691C444.475 17.1691 448.951 21.6473 448.951 27.1497V98.1704C448.951 103.673 444.475 108.151 438.975 108.151V108.147Z" fill="#436F90"/>
<path d="M407.476 37.3406C401.918 37.3406 397.394 32.8156 397.394 27.2549C397.394 21.6941 401.918 17.1691 407.476 17.1691C413.035 17.1691 417.558 21.6941 417.558 27.2549C417.558 32.8156 413.035 37.3406 407.476 37.3406Z" fill="#436F90"/>
</g>
<defs>
<clipPath id="clip0_1_24">
<rect width="535" height="129" fill="white"/>
</clipPath>
</defs>
</svg>
